<svg xmlns="http://www.w3.org/2000/svg" viewBox="0 0 1200 900" role="img" aria-labelledby="title desc">
  <title id="title">Pink baptism setup placeholder</title>
  <desc id="desc">Placeholder illustration for a soft pink baptism event setup.</desc>
  <rect width="1200" height="900" fill="#fffaf2"/>
  <rect x="0" y="600" width="1200" height="300" fill="#eadfce"/>
  <rect x="92" y="92" width="1016" height="500" rx="18" fill="#ffffff" stroke="#e4d7c4" stroke-width="6"/>
  <rect x="420" y="150" width="360" height="320" rx="28" fill="#f6d4dc" stroke="#c06678" stroke-width="8"/>
  <circle cx="505" cy="205" r="44" fill="#ffffff"/>
  <circle cx="597" cy="193" r="50" fill="#eeb1bf"/>
  <circle cx="690" cy="210" r="42" fill="#ffffff"/>
  <rect x="500" y="390" width="200" height="70" rx="10" fill="#ffffff" stroke="#e4d7c4" stroke-width="5"/>
  <rect x="180" y="560" width="840" height="96" rx="16" fill="#ffffff" stroke="#d3c3ad" stroke-width="6"/>
  <rect x="192" y="620" width="816" height="86" rx="14" fill="#f6d4dc"/>
  <g fill="#ffffff" stroke="#242220" stroke-width="5">
    <rect x="170" y="690" width="70" height="120" rx="16"/>
    <rect x="300" y="690" width="70" height="120" rx="16"/>
    <rect x="430" y="690" width="70" height="120" rx="16"/>
    <rect x="700" y="690" width="70" height="120" rx="16"/>
    <rect x="830" y="690" width="70" height="120" rx="16"/>
    <rect x="960" y="690" width="70" height="120" rx="16"/>
  </g>
  <text x="600" y="835" text-anchor="middle" font-family="Arial, Helvetica, sans-serif" font-size="42" font-weight="700" fill="#242220">Photo coming soon</text>
</svg>
